<svg xmlns="http://www.w3.org/2000/svg" viewBox="0 0 347.3 305.2"><path d="M270.4 71.2h-10.2C257.2 31.5 223.9 0 183.4 0H77C34.5 0 0 34.5 0 77v80c0 42.5 34.5 77 77 77h10.2c3 39.8 36.2 71.2 76.8 71.2h106.4c42.5 0 77-34.5 77-77v-80C347.3 105.8 312.8 71.2 270.4 71.2zM87 148.2v57.4H77c-26.8 0-48.6-21.8-48.6-48.6V77c0-26.8 21.8-48.6 48.6-48.6h106.4c24.9 0 45.4 18.8 48.3 42.9H164C121.5 71.2 87 105.8 87 148.2zM319 228.2c0 26.8-21.8 48.6-48.6 48.6H164c-26.8 0-48.6-21.8-48.6-48.6v-80c0-26.8 21.8-48.6 48.6-48.6h106.4c26.8 0 48.6 21.8 48.6 48.6V228.2z"/></svg>
